# xmcd CD Database Entry
#
# Track frame offsets:
# 150
# 50577
# 88972
# 105390
# 150377
# 231760
# 272462
#
# Disc length: 4263 seconds
#
# Revision: 2
# Processed by: cddbd v1.5.2PL0 Copyright (c) Steve Scherf et al.
# Submitted via: tcd 2.0b
#
DISCID=4e10a507
DTITLE=未知 - 未知
DYEAR=1900
DGENRE=
TTITLE0=トラック 1
TTITLE1=トラック 2
TTITLE2=トラック 3
TTITLE3=トラック 4
TTITLE4=トラック 5
TTITLE5=トラック 6
TTITLE6=トラック 7
EXTD=
EXTT0=
EXTT1=
EXTT2=
EXTT3=
EXTT4=
EXTT5=
EXTT6=
PLAYORDER=
